<svg width="130" height="308" viewBox="0 0 130 308" xmlns="http://www.w3.org/2000/svg"><g fill="none" fill-rule="evenodd"><path d="M115.13 115.03c.3.3.3.8-.1 1.1-.1.1-.3.2-.5.2s-.4-.1-.5-.2l-1.8-1.8c-.3-.3-.3-.8 0-1.1.3-.3.8-.3 1.1 0l1.8 1.8zm3.9 4l1.7 1.8c.3.3.3.8 0 1.1-.1.1-.3.2-.5.2s-.4-.1-.5-.2l-1.8-1.8c-.3-.3-.3-.8 0-1.1.3-.3.8-.3 1.1 0zm-5 0c.3-.3.8-.3 1 0 .3.3.3.8 0 1.1l-1.8 1.8c-.1.1-.3.2-.5.2s-.4-.1-.5-.2c-.3-.3-.3-.8 0-1.1l1.8-1.8zm6.8-5.7c.3.3.3.8-.1 1.1l-1.8 1.8c-.1.1-.3.2-.5.2s-.4-.1-.5-.2c-.3-.3-.3-.8 0-1.1l1.8-1.8c.3-.3.8-.3 1.1 0zM19.43 238.22l1.7 1.8c.3.3.3.8 0 1.1-.1.1-.3.2-.5.2s-.4-.1-.5-.2l-1.8-1.8c-.3-.3-.3-.8 0-1.1.3-.3.8-.3 1.1 0zm5.6 5.7l1.7 1.8c.3.3.3.8 0 1.1-.1.1-.3.2-.5.2s-.4-.1-.5-.2l-1.8-1.8c-.3-.3-.3-.8 0-1.1.3-.3.8-.3 1.1 0zm-5 0c.3-.3.8-.3 1 0 .3.3.3.8 0 1.1l-1.8 1.8c-.1.1-.3.2-.5.2s-.4-.1-.5-.2c-.3-.3-.3-.8 0-1.1l1.8-1.8zm5.7-5.7c.3-.3.8-.3 1 0 .3.3.3.8 0 1.1l-1.8 1.8c-.1.1-.3.2-.5.2s-.4-.1-.5-.2c-.3-.3-.3-.8 0-1.1l1.8-1.8zM77.03 57.13l-1.8-1.8c-.3-.3-.3-.8 0-1.1.3-.3.8-.3 1.1 0l1.7 1.8c.3.3.3.8 0 1.1-.1.1-.3.2-.5.2s-.4-.1-.5-.2zm5.7 5.6l-1.9-1.8c-.3-.3-.3-.8 0-1.1.3-.3.8-.3 1.1 0l1.8 1.8c.3.3.3.8 0 1.1-.1.1-.3.2-.5.2s-.4-.1-.5-.2zm-6.9.2c-.2 0-.4 0-.5-.1-.3-.3-.3-.8 0-1.1l1.7-1.9c.3-.3.8-.3 1.1 0 .3.3.3.8 0 1.1l-1.8 1.8c-.1.1-.3.2-.5.2zm5.7-5.6c-.2 0-.4-.1-.6-.2-.3-.3-.3-.8 0-1.1l1.8-1.8c.3-.3.8-.3 1.1 0 .3.3.3.8 0 1.1l-1.8 1.8c-.1.1-.3.2-.5.2zM24.8 39.5c.5 0 .8-.2.8-.7 0-.5-.4-.8-.8-.8H10.3c-.4 0-.9.2-.9.7 0 .5.4.8.8.8h14.6zm-19.3 0c.4 0 .8-.2.8-.7 0-.5-.4-.8-.8-.8H.8c-.4 0-.8.2-.8.7 0 .5.4.8.8.8h4.7zm-4.7 5H11c.5 0 .8-.3.8-.8s-.4-.8-.8-.8H.8c-.5 0-.8.3-.8.8s.4.8.8.8zm14.5 0h3.3c.5 0 .8-.3.8-.8s-.4-.8-.8-.8h-3.3c-.5 0-.8.3-.8.8s.4.8.8.8zM113 220.3c0 .4-.3.7-.8.8H97.6c-.5 0-.8-.3-.8-.8s.4-.8.8-.8h14.6c.5 0 .8.4.8.8zm4 .7c-.4 0-.8-.3-.8-.8s.4-.8.8-.8h4.7c.5 0 .8.3.8.8s-.4.8-.8.8H117zm4.7 3.5c.5 0 .8.4.8.8 0 .5-.4.8-.8.8h-10.1c-.5 0-.8-.4-.8-.8 0-.5.4-.8.8-.8h10.1zm-14.5 0c.5 0 .8.4.9.8 0 .5-.4.8-.8.8H104c-.5 0-.8-.4-.8-.8 0-.5.4-.8.8-.8h3.2zM122 3.9c0 2.2 1.8 3.9 3.9 3.9 2.2 0 3.9-1.8 3.9-3.9 0-2.2-1.8-3.9-3.9-3.9-2.2 0-3.9 1.7-3.9 3.9zm6.3 0c0 1.3-1.1 2.4-2.4 2.4-1.3 0-2.4-1.1-2.4-2.4 0-1.3 1.1-2.4 2.4-2.4 1.3 0 2.4 1 2.4 2.4zM84.4 301c-1.9 0-3.4 1.5-3.4 3.4s1.5 3.4 3.4 3.4 3.4-1.5 3.4-3.4c-.1-1.9-1.6-3.4-3.4-3.4zm0 5.2c-1 0-1.9-.8-1.9-1.9 0-1 .8-1.9 1.9-1.9 1 0 1.9.8 1.9 1.9-.1 1.1-.9 1.9-1.9 1.9zM11.6 101.2c2.2 0 3.9-1.8 3.9-3.9 0-2.2-1.8-3.9-3.9-3.9-2.2 0-3.9 1.8-3.9 3.9 0 2.1 1.7 3.9 3.9 3.9zm0-6.3c1.3 0 2.4 1.1 2.4 2.4 0 1.3-1.1 2.4-2.4 2.4-1.3 0-2.4-1.1-2.4-2.4 0-1.4 1.1-2.4 2.4-2.4z" fill="#E4E6F2" fill-rule="nonzero"/><circle stroke="#E0E2F1" stroke-width="1.5" cx="64" cy="168" r="32"/><path stroke="#DBDEF0" stroke-width="1.5" d="M50 169.08l11.96 11.96L82 161"/></g></svg>
